# xmcd
#
# Track frame offsets:
#	150
#	14587
#	27977
#	42802
#	57172
#	71267
#	85570
#	100602
#	115352
#	129572
#	143707
#	156605
#	170937
#	184192
#	197597
#	211305
#	225135
#	238945
#	252052
#	265767
#
# Disc length: 3704 seconds
#
# Revision: 1
# Processed by: cddbd v1.4PL0 Copyright (c) Steve Scherf et al.
# Submitted via: audiograbber 1.82.02
#
DISCID=100e7614
DTITLE=Charley Patton - Charley Patton-Volume 2
DYEAR=1900
DGENRE=
TTITLE0=Frankie and Albert
TTITLE1=Some These Days I'll Be Gone (take 1)
TTITLE2=Some These Days I'll Be Gone (take 2)
TTITLE3=Green River Blues
TTITLE4=Farrell Blues (Henry Sims, vcl)
TTITLE5=Come Back Corrina (Henry Sims, vcl)
TTITLE6=Hammer Blues (take 1)
TTITLE7=Hammer Blues (take 2)
TTITLE8=Magnolia Blues
TTITLE9=When Your Way Gets Dark
TTITLE10=Heart Like Railroad Steel
TTITLE11=Some Happy Day
TTITLE12=You're Gonna Need Somebody When You Die
TTITLE13=Jim Lee Blues - Part I
TTITLE14=Jim Lee Blues - Part II
TTITLE15=High Water Everywhere - Part I
TTITLE16=High Water Everywhere - Part II
TTITLE17=Jesue Is a Dying-Bed Maker
TTITLE18=I Shall Not Be Moved (tk. 1)
TTITLE19=Rattlesnake Blues
EXTD=
EXTT0=
EXTT1=
EXTT2=
EXTT3=
EXTT4=
EXTT5=
EXTT6=
EXTT7=
EXTT8=
EXTT9=
EXTT10=
EXTT11=
EXTT12=
EXTT13=
EXTT14=
EXTT15=
EXTT16=
EXTT17=
EXTT18=
EXTT19=
PLAYORDER=
